<?xml version="1.0" standalone="no"?>
<!DOCTYPE svg PUBLIC "-//W3C//DTD SVG 20010904//EN"
 "http://www.w3.org/TR/2001/REC-SVG-20010904/DTD/svg10.dtd">
<svg version="1.0" xmlns="http://www.w3.org/2000/svg"
 width="1024.000000pt" height="1024.000000pt" viewBox="0 0 1024.000000 1024.000000"
 preserveAspectRatio="xMidYMid meet">
<metadata>
Created by potrace 1.14, written by Peter Selinger 2001-2017
</metadata>
<g transform="translate(0.000000,1024.000000) scale(0.100000,-0.100000)"
fill="#000000" stroke="none">
<path d="M3974 8539 c-2 -5 -11 -6 -19 -2 -8 3 -15 0 -15 -7 0 -6 -5 -8 -10
-5 -6 3 -13 -1 -16 -9 -3 -9 -9 -14 -13 -11 -22 13 -123 -142 -135 -206 -3
-13 -5 -24 -6 -24 -5 0 -13 -79 -14 -132 -1 -33 -4 -59 -7 -57 -3 2 -5 -33 -5
-76 1 -44 4 -80 7 -80 3 0 5 -10 4 -22 -1 -14 -8 -23 -18 -22 -8 1 -13 -4 -11
-10 3 -7 -13 -11 -46 -11 -27 0 -50 -3 -50 -8 0 -4 -11 -5 -24 -3 -16 3 -27
-1 -30 -11 -5 -12 -9 -13 -20 -4 -10 8 -16 9 -21 1 -3 -6 -11 -8 -16 -5 -5 4
-9 1 -9 -5 0 -6 -4 -8 -10 -5 -5 3 -10 1 -10 -4 0 -6 -7 -11 -16 -11 -8 0 -13
-4 -10 -9 3 -5 -7 -14 -22 -20 -15 -6 -36 -26 -47 -44 -28 -45 -30 -51 -14
-41 11 6 12 5 3 -7 -6 -8 -10 -24 -9 -36 1 -13 -2 -23 -7 -23 -5 0 -6 -6 -1
-12 7 -13 12 -28 16 -58 5 -32 41 -92 71 -116 17 -14 38 -31 46 -38 9 -7 21
-11 27 -9 6 2 17 -3 26 -11 8 -8 17 -12 20 -9 4 3 14 2 24 -2 10 -5 20 -9 23
-10 3 -1 12 -4 20 -8 8 -3 33 -11 56 -16 41 -11 80 -42 67 -54 -3 -4 -2 -7 4
-7 11 0 21 -24 29 -67 4 -21 -5 -28 -29 -24 -5 1 -6 -3 -2 -9 3 -5 -2 -13 -12
-17 -10 -3 -26 -13 -35 -21 -10 -8 -18 -11 -18 -7 0 5 -7 0 -15 -11 -8 -10
-15 -16 -15 -12 0 7 -30 -19 -91 -77 -14 -14 -32 -25 -38 -25 -7 0 -9 -4 -6
-10 3 -5 -5 -15 -19 -22 -14 -6 -26 -18 -26 -25 0 -8 -4 -12 -10 -8 -5 3 -16
-7 -24 -22 -8 -15 -16 -26 -18 -23 -3 3 -12 -3 -22 -12 -10 -10 -14 -18 -9
-18 4 -1 -3 -7 -17 -15 -14 -8 -21 -14 -16 -15 5 0 3 -7 -4 -15 -7 -8 -17 -12
-23 -8 -6 3 -7 1 -3 -5 4 -6 -2 -17 -13 -23 -11 -7 -17 -19 -13 -27 3 -10 1
-13 -6 -8 -7 4 -12 3 -12 -2 0 -4 -12 -22 -27 -40 -16 -17 -46 -57 -68 -88
-22 -32 -48 -66 -57 -76 -10 -10 -16 -18 -12 -18 4 0 -41 -65 -56 -80 -3 -3
-16 -27 -30 -55 -14 -27 -28 -52 -31 -55 -10 -9 -22 -44 -20 -58 1 -7 -5 -15
-14 -18 -8 -3 -15 -12 -15 -18 0 -18 -38 -94 -50 -101 -8 -5 -8 -11 0 -20 8
-9 6 -14 -6 -19 -9 -4 -14 -9 -11 -13 4 -3 2 -13 -3 -23 -5 -9 -12 -32 -15
-51 -3 -18 -9 -36 -13 -39 -4 -3 -7 -14 -8 -25 -2 -32 -8 -60 -16 -65 -4 -3
-9 -19 -12 -35 -3 -16 -10 -31 -16 -33 -5 -2 -8 -8 -5 -12 3 -5 -3 -18 -15
-30 -11 -11 -20 -24 -20 -30 0 -5 -4 -10 -10 -10 -5 0 -10 -5 -10 -10 0 -6
-11 -21 -25 -34 -14 -13 -25 -31 -25 -40 0 -9 -6 -15 -12 -14 -7 2 -12 -3 -10
-9 1 -7 -2 -13 -8 -13 -5 0 -10 -7 -10 -15 0 -8 -3 -15 -8 -15 -8 0 -47 -81
-44 -92 1 -5 -2 -8 -6 -8 -9 0 -11 -14 -15 -105 -3 -96 18 -153 76 -209 26
-25 47 -42 47 -40 0 3 15 -4 33 -15 19 -11 37 -18 40 -14 4 3 7 -1 7 -10 0 -9
4 -19 10 -22 6 -3 7 1 4 10 -4 11 -2 14 9 9 15 -5 16 -75 3 -164 -3 -19 -8
-64 -12 -100 -3 -35 -8 -68 -10 -72 -3 -5 -2 -8 3 -8 4 0 8 -13 8 -30 0 -16
-2 -30 -5 -30 -3 0 -5 -24 -4 -53 0 -28 -4 -58 -10 -66 -8 -11 -8 -13 1 -8 13
8 13 -29 0 -50 -4 -6 -3 -14 3 -18 6 -4 7 -13 2 -23 -12 -26 -4 -410 9 -429 6
-9 21 -92 18 -95 -2 -2 7 -20 19 -40 13 -21 21 -38 18 -38 -11 0 87 -95 116
-113 91 -57 243 -60 366 -9 39 17 72 30 73 29 1 -1 2 -54 4 -117 4 -161 29
-282 80 -380 20 -38 88 -110 105 -110 6 0 8 -4 5 -10 -3 -5 -1 -10 5 -10 6 0
18 -7 26 -15 12 -12 12 -15 2 -15 -9 0 -9 -3 -2 -8 6 -4 16 -29 24 -57 7 -27
16 -54 19 -60 3 -5 6 -12 7 -15 6 -33 57 -131 91 -176 12 -17 21 -34 18 -37
-3 -4 -2 -5 1 -3 3 3 18 -7 33 -21 45 -44 97 -61 175 -60 81 1 126 19 175 69
59 60 79 114 111 301 20 113 22 117 80 179 65 69 135 209 153 308 3 14 8 36
11 50 3 14 7 39 10 55 17 115 17 116 45 112 14 -2 33 -6 41 -10 79 -30 172
-29 271 3 l66 22 44 -23 c114 -58 285 -20 373 83 40 46 109 172 99 182 -3 3
-2 6 4 6 5 0 25 -35 43 -77 50 -113 115 -170 235 -205 81 -24 205 -11 302 32
l41 18 56 -29 c73 -39 160 -48 236 -25 60 18 125 57 153 93 10 13 24 29 30 36
7 6 28 42 46 79 31 58 37 64 48 50 7 -9 13 -22 13 -29 0 -22 46 -97 80 -132
170 -173 465 -129 636 94 127 165 141 319 39 421 -35 35 -36 37 -29 92 3 32 8
66 11 77 2 11 6 61 8 110 5 134 -12 213 -72 338 -33 68 -33 68 -26 175 7 116
6 342 -2 407 -2 22 -7 74 -11 115 -3 41 -10 82 -15 91 -4 9 -6 19 -2 22 3 4 1
26 -5 49 -6 24 -14 58 -17 77 -22 125 -149 443 -234 589 l-32 52 58 61 c80 85
96 103 110 125 80 128 136 238 149 293 2 9 9 39 17 67 16 56 15 154 -2 196
-17 45 -80 106 -127 124 -34 13 -63 16 -127 11 l-82 -5 2 64 c3 115 -39 189
-133 233 -23 11 -62 22 -86 23 -24 2 -46 7 -50 13 -5 6 -8 5 -8 -2 0 -7 -9
-13 -21 -13 -11 0 -17 -4 -14 -10 3 -6 -1 -7 -9 -4 -9 4 -16 1 -16 -6 0 -9 -4
-9 -17 1 -9 8 -14 9 -10 3 3 -6 -15 -31 -41 -56 -59 -57 -91 -95 -84 -103 3
-3 -2 -5 -12 -5 -9 0 -14 -4 -11 -10 3 -5 -3 -15 -15 -22 -11 -7 -20 -17 -20
-23 0 -6 -10 -17 -21 -25 -12 -8 -28 -22 -37 -30 -9 -8 -19 -16 -24 -16 -4 -1
-13 -2 -19 -3 -5 0 -7 -6 -3 -12 5 -8 1 -8 -14 0 -15 8 -21 8 -24 -1 -3 -8
-10 -8 -27 2 -16 8 -21 8 -16 1 5 -8 -2 -10 -22 -5 -15 4 -30 10 -33 13 -3 3
-15 7 -27 9 -13 1 -33 3 -45 5 -13 1 -25 5 -28 9 -3 3 -18 8 -35 11 -16 3 -47
11 -68 17 -20 6 -42 8 -47 5 -6 -3 -10 -2 -10 3 0 10 -5 11 -70 13 -25 1 -50
6 -57 11 -6 5 -14 5 -17 0 -3 -5 -23 -10 -43 -11 -76 -2 -173 -25 -173 -41 0
-6 -4 -9 -9 -8 -10 3 -142 -80 -154 -96 -8 -12 -46 30 -47 52 0 6 -4 12 -10
12 -5 0 -10 6 -10 14 0 8 -6 21 -13 28 -7 7 -28 33 -47 57 -51 66 -99 111
-182 170 -27 19 -48 38 -48 43 0 4 -6 8 -12 8 -7 0 -26 11 -42 25 -16 14 -33
25 -37 25 -4 0 -14 6 -21 13 -7 7 -44 32 -83 57 -77 49 -87 57 -116 83 -10 9
-19 15 -19 12 0 -3 -8 2 -17 11 -10 8 -58 45 -106 82 -49 37 -101 76 -115 87
-59 45 -180 174 -224 240 -26 39 -57 81 -68 93 -31 33 -90 68 -130 77 -48 11
-120 13 -126 4z m-57 -1547 c14 -9 24 -70 12 -78 -5 -3 -6 -10 -3 -16 4 -6 0
-14 -7 -19 -11 -7 -11 -9 -1 -9 7 0 11 -4 8 -8 -10 -17 -18 -79 -18 -142 0
-122 6 -230 12 -230 4 0 7 -7 7 -15 0 -8 -5 -15 -11 -15 -7 0 -6 -3 1 -8 7 -4
14 -23 15 -42 2 -19 6 -37 9 -40 4 -3 9 -16 10 -30 2 -14 9 -31 16 -37 6 -7 9
-22 6 -33 -3 -13 0 -20 8 -20 11 0 11 -2 -1 -10 -13 -8 -13 -10 2 -10 9 0 20
-5 24 -12 4 -6 3 -8 -4 -4 -7 4 -10 -1 -9 -14 1 -13 5 -16 11 -10 6 6 15 10
20 10 6 0 5 -4 -2 -8 -17 -11 -5 -42 17 -42 14 0 14 -2 1 -11 -12 -9 -10 -10
8 -6 19 5 21 3 11 -9 -9 -11 -9 -14 0 -14 7 0 9 -5 5 -12 -5 -8 -2 -9 9 -5 21
8 35 -14 39 -59 1 -6 10 -9 20 -6 12 3 18 -1 18 -12 0 -9 4 -15 9 -13 13 3 71
-60 63 -69 -4 -5 2 -2 12 6 11 8 17 10 13 4 -4 -7 0 -15 8 -18 13 -5 14 -10 5
-28 -11 -21 -10 -21 10 2 12 14 19 20 16 13 -4 -6 -1 -15 5 -18 5 -4 8 -13 5
-21 -7 -17 10 -28 20 -13 5 8 3 9 -6 4 -9 -5 -11 -4 -6 4 11 16 26 4 26 -22 0
-18 2 -19 10 -7 8 13 10 13 10 -2 0 -10 5 -15 13 -12 8 3 20 -3 28 -13 13 -16
12 -17 -4 -4 -15 12 -17 12 -11 -3 3 -9 14 -16 24 -16 10 0 21 -7 24 -16 4
-10 2 -13 -6 -8 -7 5 -9 2 -6 -8 4 -8 0 -15 -7 -15 -11 0 -11 5 -4 21 10 20
10 20 -5 2 -13 -16 -13 -22 -3 -35 8 -10 9 -13 0 -8 -7 4 -14 -1 -18 -13 -7
-22 -27 -28 -22 -7 1 6 -4 11 -10 10 -7 -2 -13 4 -13 13 0 13 3 14 13 5 14
-11 27 -5 27 13 0 6 -5 4 -10 -4 -6 -10 -10 -11 -10 -3 0 8 -11 11 -29 9 -24
-3 -30 1 -34 20 -2 13 1 29 7 36 9 9 8 10 -5 0 -9 -6 -18 -9 -21 -6 -3 3 -9 0
-14 -7 -4 -7 -3 -10 4 -5 6 3 13 2 16 -3 4 -5 2 -12 -4 -16 -6 -4 -7 -12 -4
-18 4 -7 3 -8 -2 -4 -5 5 -9 14 -9 20 -1 7 -7 11 -14 9 -7 -1 -10 2 -7 7 4 5
2 13 -4 16 -8 5 -7 11 1 21 10 12 10 15 -2 12 -8 -2 -13 3 -11 10 1 8 -2 11
-7 7 -6 -3 -7 -13 -4 -23 5 -14 4 -15 -8 -4 -11 10 -11 16 -1 32 7 11 8 20 3
20 -5 0 -11 -7 -15 -15 -3 -8 -11 -15 -18 -14 -10 0 -10 2 0 6 6 2 9 9 6 14
-3 6 -12 5 -22 -3 -10 -7 -14 -8 -10 -4 12 14 -44 57 -58 45 -8 -7 -15 -6 -20
2 -5 8 -3 9 6 4 8 -5 11 -4 6 3 -4 6 -14 8 -23 5 -12 -5 -15 -2 -10 10 3 9 2
17 -3 17 -6 0 -10 -6 -10 -12 0 -8 -7 -5 -15 6 -11 14 -15 16 -15 5 -1 -10 -6
-7 -19 8 -14 16 -21 19 -30 10 -7 -7 -11 -8 -11 0 0 6 -8 13 -17 16 -10 2 -27
8 -37 13 -15 6 -17 4 -11 -7 5 -8 0 -7 -12 4 -11 10 -27 15 -37 11 -9 -3 -16
-1 -16 5 0 6 -10 11 -22 11 -51 0 -106 5 -103 10 7 11 -110 7 -117 -4 -5 -7
-8 -3 -8 9 0 12 -3 16 -8 9 -4 -6 -20 -10 -37 -9 -16 1 -34 -1 -40 -4 -5 -3
-21 -6 -35 -7 -24 -1 -52 -7 -88 -18 -9 -3 -33 -8 -52 -12 -44 -7 -51 -9 -72
-18 -9 -4 -22 -9 -30 -10 -18 -4 -50 -16 -69 -26 -34 -18 -38 4 -14 75 14 39
29 79 34 90 6 11 24 52 41 90 32 72 108 205 123 216 5 3 8 10 6 14 -2 8 9 24
76 112 28 36 55 72 60 81 44 68 225 242 335 324 91 66 106 74 127 60z m2986
-684 c4 -13 7 -27 7 -33 1 -5 9 -18 17 -27 12 -13 13 -18 3 -18 -10 0 -10 -3
0 -15 7 -9 10 -18 7 -21 -7 -8 14 -67 27 -76 7 -5 6 -8 -4 -8 -12 0 -12 -2 -2
-9 7 -4 14 -18 15 -29 1 -12 6 -22 12 -22 5 0 3 -5 -5 -10 -10 -6 -11 -10 -2
-10 7 0 12 -13 12 -29 0 -16 6 -34 14 -40 7 -6 12 -25 11 -42 -2 -24 1 -29 14
-25 14 5 13 4 -1 -7 -17 -13 -16 -15 5 -26 12 -6 14 -9 5 -7 -12 4 -15 1 -11
-10 3 -7 9 -14 13 -14 5 0 8 -9 7 -20 -1 -11 -6 -20 -12 -20 -5 0 -3 -4 5 -10
9 -6 14 -23 13 -49 -1 -26 2 -41 10 -41 7 0 6 -4 -3 -10 -9 -6 -20 -5 -30 3
-13 10 -13 10 -2 -5 8 -10 20 -14 30 -11 15 6 15 5 4 -10 -12 -14 -12 -19 2
-32 17 -17 22 -30 8 -21 -4 2 -14 1 -22 -5 -13 -7 -13 -9 0 -10 8 -1 17 -1 20
-1 3 0 5 -10 5 -23 0 -13 -3 -21 -7 -18 -5 2 -8 2 -8 -1 0 -2 -3 -11 -6 -20
-3 -9 -1 -16 6 -16 6 0 8 5 5 10 -10 16 1 11 16 -7 10 -11 10 -14 2 -9 -7 4
-13 5 -13 2 0 -2 -3 -13 -6 -23 -4 -13 -3 -14 4 -5 7 11 10 11 15 -1 4 -11 0
-15 -14 -12 -10 2 -19 0 -19 -6 0 -5 4 -9 8 -9 5 0 8 -12 7 -27 -1 -16 3 -32
9 -36 7 -5 5 -7 -4 -4 -8 2 -16 13 -16 25 -2 32 -3 34 -15 26 -8 -4 -8 -9 0
-17 7 -7 7 -15 -2 -26 -9 -12 -9 -13 1 -7 8 5 12 0 12 -13 0 -31 1 -35 11 -47
5 -6 6 -14 2 -18 -4 -4 -8 -15 -8 -24 0 -9 -6 -16 -12 -15 -7 2 -13 -1 -13 -6
0 -5 6 -12 13 -15 6 -3 0 -3 -15 -1 -21 3 -28 -1 -29 -13 0 -14 -2 -13 -8 3
-5 11 -12 20 -17 21 -21 2 -43 17 -38 25 3 5 0 9 -5 9 -18 0 -12 -17 11 -32
17 -11 19 -16 8 -23 -9 -5 -11 -4 -6 3 5 8 -2 12 -19 12 -17 0 -24 4 -19 12 4
7 3 8 -5 4 -6 -4 -9 -17 -6 -29 2 -12 2 -17 0 -11 -7 13 -88 7 -93 -7 -2 -5
-11 -1 -20 9 -10 9 -14 13 -9 8 15 -20 7 -24 -55 -29 -11 -1 -14 -5 -8 -12 7
-8 -1 -11 -24 -9 -30 3 -33 0 -30 -19 4 -20 3 -20 -4 -3 -7 15 -21 20 -63 23
-72 5 -79 6 -79 10 0 8 26 49 35 55 12 9 2 10 -19 2 -8 -3 -13 -11 -10 -18 2
-6 -8 -23 -22 -36 -15 -14 -24 -20 -21 -14 4 7 0 15 -9 18 -8 3 -13 10 -10 14
3 5 -1 9 -9 9 -8 0 -16 -6 -19 -13 -3 -8 -12 -11 -23 -7 -16 6 -17 5 -3 -13
14 -18 14 -18 -5 -3 -36 29 -49 34 -42 16 4 -11 2 -14 -9 -10 -8 3 -13 11 -11
18 3 6 -1 12 -8 12 -8 0 -11 -7 -7 -15 4 -11 1 -13 -9 -8 -8 4 -6 1 4 -7 16
-14 15 -15 -15 -12 -37 3 -92 -21 -83 -35 4 -6 -1 -7 -11 -3 -14 5 -16 3 -11
-11 4 -10 3 -15 -3 -11 -6 3 -16 3 -22 -2 -19 -11 -39 -13 -32 -2 3 5 0 9 -5
9 -6 0 -11 -5 -11 -12 0 -6 -7 -3 -16 8 -8 10 -13 13 -9 7 4 -9 1 -11 -9 -7
-9 3 -16 10 -16 16 0 5 -4 7 -9 4 -4 -3 -16 1 -27 8 -10 8 -25 12 -34 9 -13
-4 -13 -4 0 6 13 9 13 11 0 12 -47 2 -85 11 -99 22 -12 10 -13 9 -7 -1 7 -11
4 -12 -12 -3 -11 6 -31 11 -44 11 -22 1 -22 1 -4 15 11 8 16 15 10 15 -5 1 2
7 16 15 14 8 21 14 16 15 -5 0 9 18 31 40 22 21 43 46 46 55 4 8 11 15 17 15
6 0 8 5 4 11 -4 8 1 9 17 4 17 -4 20 -3 10 3 -16 11 -5 36 11 26 6 -4 8 -2 4
4 -3 6 1 18 10 26 8 9 13 16 9 16 -6 0 5 15 38 51 9 10 17 22 17 27 0 21 13
41 22 36 7 -4 8 -2 4 4 -4 6 1 24 11 39 10 14 18 31 19 37 0 6 2 17 2 24 1 7
7 10 14 6 6 -4 8 -3 4 4 -3 6 1 18 10 26 8 9 11 16 5 16 -7 0 -7 8 1 25 6 14
15 25 19 25 4 0 6 11 3 24 -3 17 2 28 13 35 13 8 14 10 4 11 -12 0 -12 3 -3
12 7 7 12 22 12 35 0 14 6 23 15 23 9 0 19 8 23 18 8 19 32 28 32 12 0 -5 4
-10 10 -10 5 0 7 7 4 15 -4 8 -1 15 5 15 6 0 11 -6 11 -12 0 -9 4 -8 10 2 5 8
10 11 10 5 0 -5 5 -3 10 5 6 10 10 11 10 3 0 -7 4 -13 10 -13 5 0 7 6 4 13 -3
8 1 14 8 15 24 2 88 27 88 34 0 4 7 5 15 2 8 -4 15 -1 15 6 0 6 5 8 10 5 6 -3
10 -2 10 4 0 5 9 12 19 16 11 3 36 17 55 30 20 13 36 22 36 19 0 -3 14 8 31
25 17 17 34 31 37 31 12 0 138 124 145 143 9 25 44 22 50 -5z m-2792 -425 c13
-16 12 -17 -3 -4 -10 7 -18 15 -18 17 0 8 8 3 21 -13z m193 -169 c3 -8 2 -12
-4 -9 -6 3 -10 10 -10 16 0 14 7 11 14 -7z m2779 -369 c-3 -9 -8 -14 -10 -11
-3 3 -2 9 2 15 9 16 15 13 8 -4z m-633 -139 c0 -3 -4 -8 -10 -11 -5 -3 -10 -1
-10 4 0 6 5 11 10 11 6 0 10 -2 10 -4z"/>
<path d="M4146 5902 c-3 -5 1 -9 9 -9 8 0 12 4 9 9 -3 4 -7 8 -9 8 -2 0 -6 -4
-9 -8z"/>
<path d="M4255 5820 c3 -5 8 -10 11 -10 2 0 4 5 4 10 0 6 -5 10 -11 10 -5 0
-7 -4 -4 -10z"/>
<path d="M4235 5800 c3 -5 8 -10 11 -10 2 0 4 5 4 10 0 6 -5 10 -11 10 -5 0
-7 -4 -4 -10z"/>
<path d="M4307 5773 c3 -7 9 -10 14 -7 14 8 11 21 -5 21 -8 0 -12 -6 -9 -14z"/>
<path d="M6555 5981 c-3 -5 -2 -12 3 -15 5 -3 9 1 9 9 0 17 -3 19 -12 6z"/>
<path d="M6630 5980 c0 -5 5 -10 11 -10 5 0 7 5 4 10 -3 6 -8 10 -11 10 -2 0
-4 -4 -4 -10z"/>
<path d="M6320 5940 c-9 -6 -10 -10 -3 -10 6 0 15 5 18 10 8 12 4 12 -15 0z"/>
<path d="M6350 5945 c0 -7 30 -13 34 -7 3 4 -4 9 -15 9 -10 1 -19 0 -19 -2z"/>
<path d="M6544 5942 c4 -3 14 -7 22 -8 9 -1 13 0 10 4 -4 3 -14 7 -22 8 -9 1
-13 0 -10 -4z"/>
<path d="M6990 5939 c0 -5 5 -7 10 -4 6 3 10 8 10 11 0 2 -4 4 -10 4 -5 0 -10
-5 -10 -11z"/>
<path d="M6457 5933 c-10 -9 -9 -23 1 -23 5 0 9 7 9 15 0 17 -1 18 -10 8z"/>
<path d="M6275 5920 c3 -5 8 -10 11 -10 2 0 4 5 4 10 0 6 -5 10 -11 10 -5 0
-7 -4 -4 -10z"/>
<path d="M6510 5925 c0 -5 5 -17 10 -25 5 -8 10 -10 10 -5 0 6 -5 17 -10 25
-5 8 -10 11 -10 5z"/>
<path d="M6310 5902 c0 -5 7 -9 15 -9 8 0 12 4 9 9 -3 4 -9 8 -15 8 -5 0 -9
-4 -9 -8z"/>
<path d="M6355 5901 c-3 -5 -2 -12 3 -15 5 -3 9 1 9 9 0 17 -3 19 -12 6z"/>
<path d="M6430 5901 c0 -6 4 -13 10 -16 6 -3 7 1 4 9 -7 18 -14 21 -14 7z"/>
<path d="M6470 5900 c-13 -8 -12 -10 3 -10 9 0 17 5 17 10 0 12 -1 12 -20 0z"/>
<path d="M6650 5900 c0 -5 5 -10 11 -10 5 0 7 5 4 10 -3 6 -8 10 -11 10 -2 0
-4 -4 -4 -10z"/>
<path d="M6500 5890 c0 -5 0 -13 1 -16 0 -4 -5 -11 -13 -16 -11 -8 -10 -9 1
-6 13 4 28 48 16 48 -3 0 -5 -4 -5 -10z"/>
<path d="M6280 5886 c0 -2 8 -10 18 -17 15 -13 16 -12 3 4 -13 16 -21 21 -21
13z"/>
<path d="M6402 5876 c7 -8 15 -12 17 -11 5 6 -10 25 -20 25 -5 0 -4 -6 3 -14z"/>
<path d="M6546 5875 c4 -8 11 -15 16 -15 6 0 5 6 -2 15 -7 8 -14 15 -16 15 -2
0 -1 -7 2 -15z"/>
<path d="M6430 5860 c0 -5 7 -7 15 -4 20 8 19 -1 -2 -22 -16 -15 -17 -15 -24
2 -7 16 -8 17 -8 2 -1 -27 17 -30 39 -8 11 11 18 25 15 30 -8 13 -35 13 -35 0z"/>
<path d="M6646 5862 c-3 -5 1 -9 9 -9 8 0 12 4 9 9 -3 4 -7 8 -9 8 -2 0 -6 -4
-9 -8z"/>
<path d="M6335 5850 c-3 -5 -3 -15 1 -21 4 -8 -1 -9 -17 -5 -13 3 -18 3 -11 0
6 -3 9 -10 6 -16 -5 -7 -1 -7 11 0 10 5 19 19 20 31 2 23 -1 26 -10 11z"/>
<path d="M6275 5841 c-3 -5 -2 -12 3 -15 5 -3 9 1 9 9 0 17 -3 19 -12 6z"/>
<path d="M6360 5840 c0 -5 5 -10 10 -10 6 0 10 5 10 10 0 6 -4 10 -10 10 -5 0
-10 -4 -10 -10z"/>
<path d="M6510 5838 c0 -11 12 -10 30 2 12 7 10 9 -8 7 -12 0 -22 -5 -22 -9z"/>
<path d="M6870 5840 c0 -5 5 -10 10 -10 6 0 10 5 10 10 0 6 -4 10 -10 10 -5 0
-10 -4 -10 -10z"/>
<path d="M6470 5830 c0 -5 6 -10 13 -10 7 0 13 -9 14 -20 1 -11 -2 -18 -7 -15
-17 10 -23 -18 -7 -30 9 -7 13 -16 9 -20 -4 -5 -1 -5 7 0 12 7 11 10 -2 20
-18 13 -24 30 -7 20 6 -3 13 1 16 9 3 9 11 13 18 9 6 -4 5 1 -3 11 -19 23 -51
40 -51 26z"/>
<path d="M6385 5811 c-4 -13 -4 -25 -1 -28 3 -4 6 2 6 13 0 17 3 16 21 -6 13
-17 17 -18 10 -5 -23 45 -28 49 -36 26z"/>
<path d="M6535 5821 c-3 -5 0 -13 6 -17 7 -4 9 -3 5 4 -3 6 2 13 11 15 16 4
16 5 1 6 -9 0 -19 -3 -23 -8z"/>
<path d="M6354 5809 c-3 -6 -2 -15 3 -20 5 -5 9 -1 9 11 0 23 -2 24 -12 9z"/>
<path d="M6450 5800 c0 -5 5 -10 10 -10 6 0 10 5 10 10 0 6 -4 10 -10 10 -5 0
-10 -4 -10 -10z"/>
<path d="M6590 5800 c0 -4 7 -7 15 -6 23 3 26 12 5 13 -11 1 -20 -2 -20 -7z"/>
<path d="M6306 5778 c3 -4 12 -4 21 -1 14 5 13 2 -2 -23 l-17 -29 20 25 c23
28 21 39 -8 37 -10 -1 -17 -5 -14 -9z"/>
<path d="M6534 5775 c-3 -8 -4 -20 -2 -27 3 -7 7 -1 10 15 6 29 1 36 -8 12z"/>
<path d="M6440 5775 c0 -6 5 -16 11 -22 9 -9 7 -12 -9 -10 -12 0 -24 7 -26 14
-6 16 -26 17 -26 2 0 -5 4 -8 9 -5 5 3 11 0 14 -8 5 -12 45 -17 49 -6 1 3 -3
14 -10 25 -6 11 -12 15 -12 10z"/>
<path d="M6260 5765 c0 -2 6 -8 13 -14 10 -8 14 -7 14 2 0 8 -6 14 -14 14 -7
0 -13 -1 -13 -2z"/>
<path d="M6355 5760 c-8 -13 4 -32 16 -25 5 4 9 -3 9 -15 0 -12 -4 -19 -9 -15
-6 3 -15 -5 -21 -17 -10 -21 -10 -22 4 -5 8 10 18 18 23 18 4 -1 8 9 8 22 0
12 -5 21 -12 20 -7 -2 -13 1 -13 6 0 5 6 12 13 14 9 4 9 6 0 6 -6 1 -15 -3
-18 -9z"/>
<path d="M6553 5753 c0 -11 7 -20 14 -20 10 0 10 4 1 16 -7 9 -13 18 -15 20
-1 2 -1 -5 0 -16z"/>
<path d="M6636 5762 c-3 -5 1 -9 9 -9 8 0 12 4 9 9 -3 4 -7 8 -9 8 -2 0 -6 -4
-9 -8z"/>
<path d="M6696 5755 c-9 -26 -7 -32 5 -12 6 10 9 21 6 23 -2 3 -7 -2 -11 -11z"/>
<path d="M6593 5727 c0 -8 6 -14 14 -14 9 0 10 4 2 14 -6 7 -12 13 -14 13 -1
0 -2 -6 -2 -13z"/>
<path d="M6265 5720 c-3 -6 1 -7 9 -4 18 7 21 14 7 14 -6 0 -13 -4 -16 -10z"/>
<path d="M6326 5722 c-3 -5 1 -9 9 -9 8 0 15 4 15 9 0 4 -4 8 -9 8 -6 0 -12
-4 -15 -8z"/>
<path d="M6410 5712 c9 -19 14 -21 26 -11 8 6 14 14 14 17 0 3 -5 1 -12 -6 -9
-9 -15 -7 -25 6 -13 15 -13 14 -3 -6z"/>
<path d="M6516 5718 c3 -5 10 -6 15 -3 13 9 11 12 -6 12 -8 0 -12 -4 -9 -9z"/>
<path d="M6730 5699 c0 -5 5 -7 10 -4 6 3 10 8 10 11 0 2 -4 4 -10 4 -5 0 -10
-5 -10 -11z"/>
<path d="M6619 5698 c-5 -18 -6 -38 -1 -34 7 8 12 36 6 36 -2 0 -4 -1 -5 -2z"/>
<path d="M6275 5679 c3 -4 13 -6 23 -5 9 2 23 -4 30 -13 12 -14 12 -14 4 4 -6
11 -21 20 -36 21 -14 0 -23 -3 -21 -7z"/>
<path d="M6390 5680 c0 -6 4 -9 9 -6 5 4 12 1 14 -4 3 -6 4 -5 3 2 -3 15 -26
23 -26 8z"/>
<path d="M6430 5676 c0 -2 8 -10 18 -17 15 -13 16 -12 3 4 -13 16 -21 21 -21
13z"/>
<path d="M6255 5660 c-3 -5 -1 -10 4 -10 6 0 11 5 11 10 0 6 -2 10 -4 10 -3 0
-8 -4 -11 -10z"/>
<path d="M6375 5663 c3 -3 0 -12 -5 -18 -7 -9 -6 -14 3 -18 14 -5 17 28 4 38
-4 3 -5 2 -2 -2z"/>
<path d="M6550 5656 c7 -7 13 -7 20 0 6 6 3 10 -10 10 -13 0 -16 -4 -10 -10z"/>
<path d="M6815 5660 c3 -5 8 -10 11 -10 2 0 4 5 4 10 0 6 -5 10 -11 10 -5 0
-7 -4 -4 -10z"/>
<path d="M6295 5649 c-4 -6 -5 -12 -2 -15 2 -3 7 2 10 11 7 17 1 20 -8 4z"/>
<path d="M6694 5640 c0 -13 4 -16 10 -10 7 7 7 13 0 20 -6 6 -10 3 -10 -10z"/>
<path d="M6413 5633 c0 -9 4 -10 14 -2 7 6 13 12 13 14 0 1 -6 2 -13 2 -8 0
-14 -6 -14 -14z"/>
<path d="M6514 5636 c1 -8 5 -18 8 -22 4 -3 5 1 4 10 -1 8 -5 18 -8 22 -4 3
-5 -1 -4 -10z"/>
<path d="M6593 5633 c0 -11 7 -20 14 -20 10 0 10 4 1 16 -7 9 -13 18 -15 20
-1 2 -1 -5 0 -16z"/>
<path d="M6730 5641 c0 -6 4 -13 10 -16 6 -3 7 1 4 9 -7 18 -14 21 -14 7z"/>
<path d="M6309 5623 c-13 -16 -12 -17 4 -4 9 7 17 15 17 17 0 8 -8 3 -21 -13z"/>
<path d="M6440 5620 c-9 -6 -10 -10 -3 -10 6 0 15 5 18 10 8 12 4 12 -15 0z"/>
<path d="M6550 5622 c0 -5 7 -9 15 -9 8 0 12 4 9 9 -3 4 -9 8 -15 8 -5 0 -9
-4 -9 -8z"/>
<path d="M6353 5605 c0 -8 4 -12 9 -9 5 3 6 10 3 15 -9 13 -12 11 -12 -6z"/>
<path d="M6399 5603 c0 -5 -3 -19 -5 -32 -2 -14 -2 -22 1 -19 8 8 17 58 10 58
-3 0 -5 -3 -6 -7z"/>
<path d="M6473 5596 c-3 -6 -3 -8 2 -4 4 4 13 3 20 -2 8 -7 12 -5 12 3 0 16
-25 18 -34 3z"/>
<path d="M6715 5591 c1 -9 -5 -25 -14 -36 -16 -20 -16 -20 7 -1 12 11 20 21
17 24 -3 3 0 10 5 17 7 8 5 12 -4 12 -8 0 -13 -7 -11 -16z"/>
<path d="M6897 5595 c-4 -8 -3 -16 1 -19 4 -3 9 4 9 15 2 23 -3 25 -10 4z"/>
<path d="M6310 5596 c0 -2 8 -10 18 -17 15 -13 16 -12 3 4 -13 16 -21 21 -21
13z"/>
<path d="M6360 5580 c-9 -6 -10 -10 -3 -10 6 0 15 5 18 10 8 12 4 12 -15 0z"/>
<path d="M6593 5567 c-1 -11 -1 -18 0 -16 2 2 8 11 15 20 9 12 9 16 -1 16 -7
0 -14 -9 -14 -20z"/>
<path d="M6635 5582 c3 -3 -3 -15 -12 -26 -14 -15 -14 -18 -2 -8 9 6 18 11 20
9 2 -1 3 0 2 2 -2 2 2 9 7 16 7 8 5 12 -5 12 -8 0 -13 -3 -10 -5z"/>
<path d="M6675 5582 c3 -3 -1 -12 -7 -21 -8 -10 -4 -9 10 3 26 23 26 23 7 23
-8 0 -13 -3 -10 -5z"/>
<path d="M6745 5580 c-3 -6 1 -7 9 -4 18 7 21 14 7 14 -6 0 -13 -4 -16 -10z"/>
<path d="M6793 5575 c0 -8 4 -12 9 -9 5 3 6 10 3 15 -9 13 -12 11 -12 -6z"/>
<path d="M6303 5562 c10 -10 14 -22 10 -27 -5 -4 -2 -5 5 -1 11 6 10 12 -4 27
-9 10 -19 19 -22 19 -3 0 2 -8 11 -18z"/>
<path d="M6206 5558 c3 -5 10 -6 15 -3 13 9 11 12 -6 12 -8 0 -12 -4 -9 -9z"/>
<path d="M6416 5562 c-3 -5 1 -9 9 -9 8 0 12 4 9 9 -3 4 -7 8 -9 8 -2 0 -6 -4
-9 -8z"/>
<path d="M6450 5558 c0 -4 9 -7 20 -5 29 5 33 13 5 13 -14 0 -25 -4 -25 -8z"/>
<path d="M6760 5566 c0 -2 8 -10 18 -17 15 -13 16 -12 3 4 -13 16 -21 21 -21
13z"/>
<path d="M7040 5550 c-6 -11 -8 -20 -6 -20 3 0 10 9 16 20 6 11 8 20 6 20 -3
0 -10 -9 -16 -20z"/>
<path d="M6273 5547 c0 -8 6 -14 14 -14 9 0 10 4 2 14 -6 7 -12 13 -14 13 -1
0 -2 -6 -2 -13z"/>
<path d="M6513 5547 c0 -8 6 -14 14 -14 9 0 10 4 2 14 -6 7 -12 13 -14 13 -1
0 -2 -6 -2 -13z"/>
<path d="M6349 5534 c6 -12 7 -24 3 -28 -3 -4 2 -4 12 0 15 6 17 4 11 -6 -5
-8 -4 -11 3 -6 6 4 9 13 5 22 -3 8 -8 12 -11 10 -3 -3 -11 2 -19 12 -13 15
-13 15 -4 -4z"/>
<path d="M6715 5541 c-3 -5 -2 -12 3 -15 5 -3 9 1 9 9 0 17 -3 19 -12 6z"/>
<path d="M6748 5539 c7 -9 10 -25 6 -35 -5 -18 -5 -18 6 0 10 15 9 21 -6 35
-16 14 -17 14 -6 0z"/>
<path d="M6930 5540 c0 -5 5 -10 11 -10 5 0 7 5 4 10 -3 6 -8 10 -11 10 -2 0
-4 -4 -4 -10z"/>
<path d="M6411 5523 c-1 -25 14 -39 25 -22 4 7 3 9 -4 5 -6 -3 -12 3 -15 16
-4 23 -4 23 -6 1z"/>
<path d="M6634 5505 c0 -13 3 -22 7 -19 8 4 6 30 -2 38 -3 3 -5 -5 -5 -19z"/>
<path d="M6836 5513 c-6 -14 -5 -15 5 -6 7 7 10 15 7 18 -3 3 -9 -2 -12 -12z"/>
<path d="M6455 5511 c-9 -15 13 -23 32 -11 15 9 14 10 -6 4 -16 -4 -21 -3 -17
5 4 6 5 11 2 11 -3 0 -7 -4 -11 -9z"/>
<path d="M6281 5496 c-9 -11 -9 -16 1 -22 7 -4 10 -4 6 1 -4 4 -3 14 3 22 6 7
9 13 6 13 -2 0 -10 -6 -16 -14z"/>
<path d="M6550 5496 c14 -18 13 -19 -3 -13 -11 4 -16 3 -12 -3 8 -12 35 -13
35 -1 0 5 -8 15 -17 22 -17 13 -17 13 -3 -5z"/>
<path d="M6797 5497 c4 -7 -1 -8 -13 -3 -15 6 -17 5 -6 -5 10 -11 15 -10 28 2
13 14 13 16 0 16 -8 0 -12 -5 -9 -10z"/>
<path d="M7033 5495 c0 -8 4 -15 9 -15 4 0 8 4 8 9 0 6 -4 12 -8 15 -5 3 -9
-1 -9 -9z"/>
<path d="M6380 5470 c-6 -11 -9 -20 -8 -20 2 0 11 9 21 20 9 11 13 20 7 20 -5
0 -14 -9 -20 -20z"/>
<path d="M6430 5480 c-12 -8 -12 -10 -1 -10 11 0 11 -4 -2 -18 -10 -10 -17
-22 -17 -26 0 -5 9 2 19 15 11 13 22 21 26 18 3 -4 -2 -15 -12 -25 -17 -17
-17 -18 2 -10 11 5 28 8 39 8 14 -1 11 4 -13 22 -17 13 -28 26 -24 29 9 10 0
8 -17 -3z"/>
<path d="M6497 5473 c6 -16 5 -17 -13 -3 -18 14 -18 14 -5 -2 7 -10 17 -15 22
-12 12 7 11 34 -1 34 -5 0 -6 -8 -3 -17z"/>
<path d="M6690 5482 c0 -5 7 -9 15 -9 8 0 12 4 9 9 -3 4 -9 8 -15 8 -5 0 -9
-4 -9 -8z"/>
<path d="M6834 5475 c3 -23 12 -26 13 -5 1 11 -2 20 -7 20 -4 0 -7 -7 -6 -15z"/>
<path d="M6350 5470 c-9 -6 -10 -10 -3 -10 6 0 15 5 18 10 8 12 4 12 -15 0z"/>
<path d="M6305 5460 c-3 -6 1 -7 9 -4 18 7 21 14 7 14 -6 0 -13 -4 -16 -10z"/>
<path d="M6396 5453 c-6 -14 -5 -15 5 -6 7 7 10 15 7 18 -3 3 -9 -2 -12 -12z"/>
<path d="M6516 5453 c-6 -14 -5 -15 5 -6 7 7 10 15 7 18 -3 3 -9 -2 -12 -12z"/>
<path d="M6575 5459 c-6 -8 -4 -10 5 -4 10 6 12 4 6 -11 -6 -15 -5 -17 5 -6 9
9 10 15 2 23 -8 8 -13 7 -18 -2z"/>
<path d="M6675 5460 c6 -10 4 -12 -8 -7 -11 4 -14 2 -10 -9 3 -7 9 -14 13 -14
13 0 20 29 8 36 -7 5 -8 2 -3 -6z"/>
<path d="M6755 5451 c4 -8 2 -17 -6 -22 -9 -6 -10 -9 -2 -9 19 0 27 21 13 33
-10 9 -11 9 -5 -2z"/>
<path d="M6357 5439 c7 -7 15 -10 18 -7 3 3 -2 9 -12 12 -14 6 -15 5 -6 -5z"/>
<path d="M6537 5444 c-10 -11 -8 -24 4 -24 5 0 7 5 4 10 -3 6 -2 10 4 10 5 0
12 -5 14 -10 3 -6 4 -5 3 2 -3 14 -20 21 -29 12z"/>
<path d="M6580 5409 c-19 -21 -39 -39 -44 -39 -5 0 -1 9 9 20 10 11 15 20 10
20 -4 0 -16 -11 -27 -25 -11 -14 -24 -25 -30 -25 -7 0 -1 12 13 27 13 14 18
23 10 18 -11 -6 -13 -4 -8 8 4 11 2 14 -9 10 -12 -4 -12 -8 -2 -20 10 -12 9
-14 -3 -13 -26 4 -39 0 -39 -11 0 -8 5 -8 15 1 9 8 15 9 15 2 0 -6 -4 -14 -10
-17 -16 -10 -11 -28 6 -21 19 7 44 -10 44 -30 0 -8 -6 -13 -12 -11 -7 1 -14
-9 -15 -23 -2 -21 -1 -22 5 -5 4 11 15 21 24 23 11 2 16 -2 12 -11 -2 -7 6
-19 20 -27 14 -7 31 -25 38 -39 13 -26 13 -26 31 -8 18 18 18 19 -2 12 -16 -5
-20 -3 -15 9 3 8 11 13 19 10 7 -3 16 3 19 13 7 17 8 17 22 -1 8 -11 14 -16
14 -10 0 5 -7 18 -15 28 -23 30 -17 45 6 17 11 -13 22 -21 26 -18 3 4 -5 15
-18 26 -13 11 -20 23 -16 27 4 5 13 2 18 -6 8 -11 9 -9 4 8 -6 22 -5 22 15 10
19 -11 24 -10 41 11 10 13 19 28 18 35 0 6 -5 1 -11 -11 -6 -12 -17 -24 -26
-28 -18 -7 -42 12 -37 28 3 7 1 19 -5 27 -8 13 -13 13 -39 -3 -36 -21 -42 -21
-35 -2 4 8 1 15 -6 15 -10 0 -10 3 0 15 7 9 11 17 9 19 -2 2 -20 -14 -39 -35z
m25 -9 c3 -5 2 -10 -4 -10 -5 0 -13 5 -16 10 -3 6 -2 10 4 10 5 0 13 -4 16
-10z m81 -28 c1 -12 -2 -22 -6 -22 -4 0 -12 -11 -18 -25 -6 -14 -17 -25 -24
-25 -9 0 -8 3 2 11 12 8 11 9 -6 5 -15 -5 -21 -2 -21 9 0 9 6 14 12 11 6 -2
12 1 12 8 0 7 -6 13 -14 13 -7 0 -13 -4 -13 -9 0 -4 -5 -8 -11 -8 -8 0 -7 6 2
18 11 14 11 15 -1 5 -21 -19 -34 -16 -19 5 13 15 12 16 -3 3 -10 -7 -15 -17
-12 -22 3 -5 -2 -6 -11 -2 -15 5 -14 8 4 26 19 19 21 19 45 3 17 -10 26 -12
26 -5 0 8 4 8 14 -1 8 -6 12 -19 9 -28 -3 -9 -3 -14 1 -10 4 3 8 12 10 20 1 7
6 20 11 28 8 13 7 13 -8 1 -16 -13 -25 -2 -10 13 12 12 28 0 29 -22z m-122
-36 c24 3 47 -6 40 -17 -3 -5 8 -14 23 -21 38 -16 37 -16 23 -33 -7 -8 -16
-12 -21 -9 -5 3 -12 -1 -15 -9 -4 -12 -11 -10 -32 10 -15 14 -26 28 -25 31 1
4 -9 21 -22 38 -13 17 -21 34 -18 38 4 4 12 -2 17 -12 6 -11 19 -18 30 -16z"/>
<path d="M6560 5310 c5 -9 7 -20 4 -22 -2 -3 7 -13 20 -22 16 -10 27 -12 31
-6 4 6 10 8 15 5 5 -3 12 0 16 6 4 7 3 9 -4 5 -5 -3 -12 -1 -14 5 -2 7 -15 13
-28 14 -13 1 -26 7 -28 15 -3 8 0 10 9 5 8 -5 10 -4 6 0 -4 5 -14 10 -22 11
-11 2 -12 -2 -5 -16z m51 -33 c-1 -12 -15 -9 -19 4 -3 6 1 10 8 8 6 -3 11 -8
11 -12z"/>
<path d="M6925 5439 c-3 -4 2 -6 10 -5 21 3 28 13 10 13 -9 0 -18 -4 -20 -8z"/>
<path d="M6695 5431 c-9 -15 15 -25 28 -12 9 9 7 10 -7 5 -13 -5 -17 -4 -12 4
4 7 5 12 2 12 -3 0 -7 -4 -11 -9z"/>
<path d="M6215 5420 c3 -5 8 -10 11 -10 2 0 4 5 4 10 0 6 -5 10 -11 10 -5 0
-7 -4 -4 -10z"/>
<path d="M6393 5410 c1 -13 -3 -25 -10 -25 -6 0 -15 -4 -20 -9 -5 -5 -3 -6 5
-2 8 5 12 0 12 -13 0 -11 4 -22 9 -25 5 -4 7 3 4 14 -3 11 0 27 7 35 8 10 9
19 1 32 -9 16 -10 15 -8 -7z"/>
<path d="M6630 5420 c0 -5 5 -10 10 -10 6 0 10 5 10 10 0 6 -4 10 -10 10 -5 0
-10 -4 -10 -10z"/>
<path d="M6773 5417 c-4 -6 -1 -7 7 -2 10 6 12 4 7 -8 -9 -23 0 -22 12 1 8 14
6 19 -5 19 -8 0 -18 -5 -21 -10z"/>
<path d="M6825 5423 c6 -4 10 -18 9 -30 -1 -13 2 -23 7 -23 13 0 3 54 -12 58
-9 2 -10 0 -4 -5z"/>
<path d="M6994 5394 c0 -18 3 -31 7 -28 4 2 6 12 4 22 -1 9 1 22 6 28 5 6 4
11 -4 11 -8 0 -13 -13 -13 -33z"/>
<path d="M6299 5408 c7 -9 10 -21 7 -27 -3 -5 3 -7 14 -4 12 3 19 6 18 7 -2 1
-14 10 -28 21 -18 15 -21 15 -11 3z"/>
<path d="M6455 5410 c-3 -5 -12 -7 -20 -3 -8 3 -15 3 -15 0 0 -13 28 -13 45
-1 10 8 14 14 8 14 -7 0 -14 -4 -18 -10z"/>
<path d="M6275 5403 c3 -3 0 -11 -5 -18 -7 -8 -5 -12 4 -12 14 0 16 22 3 32
-4 3 -5 2 -2 -2z"/>
<path d="M6330 5405 c0 -8 29 -12 39 -5 9 5 4 8 -13 8 -14 0 -26 -2 -26 -3z"/>
<path d="M6736 5395 c4 -8 8 -15 10 -15 2 0 4 7 4 15 0 8 -4 15 -10 15 -5 0
-7 -7 -4 -15z"/>
<path d="M6713 5379 c-1 -12 4 -19 15 -18 11 0 12 2 4 6 -6 2 -10 9 -7 13 3 5
2 11 -3 14 -4 2 -9 -4 -9 -15z"/>
<path d="M6880 5396 c0 -2 7 -7 16 -10 8 -3 12 -2 9 4 -6 10 -25 14 -25 6z"/>
<path d="M6217 5375 c-4 -8 -3 -16 1 -19 4 -3 9 4 9 15 2 23 -3 25 -10 4z"/>
<path d="M6412 5378 c-7 -7 -12 -16 -12 -21 0 -5 7 -1 16 8 9 9 14 18 12 20
-2 3 -10 -1 -16 -7z"/>
<path d="M6946 5378 c3 -4 9 -8 15 -8 5 0 9 4 9 8 0 5 -7 9 -15 9 -8 0 -12 -4
-9 -9z"/>
<path d="M6421 5345 c-20 -29 -26 -32 -41 -22 -10 6 -17 15 -14 19 3 4 -2 5
-11 2 -11 -5 -14 -2 -9 12 5 16 4 16 -5 4 -11 -15 -7 -20 35 -46 16 -9 16 -12
-7 -33 -23 -23 -23 -23 -1 -12 20 11 26 8 23 -11 0 -5 4 -8 9 -8 6 0 10 4 10
9 0 6 -4 13 -10 16 -5 3 -10 11 -10 17 0 6 3 8 6 5 4 -3 15 -2 24 3 21 11 46
-12 35 -32 -4 -7 7 3 23 22 17 19 29 36 27 39 -3 2 -13 -7 -24 -20 -11 -13
-20 -19 -21 -13 0 5 5 15 10 22 7 9 7 9 -2 2 -17 -14 -34 -12 -20 2 7 7 12 17
12 22 0 6 -7 0 -16 -12 -8 -12 -20 -22 -25 -22 -6 0 -1 14 11 31 12 16 20 32
18 34 -2 2 -14 -11 -27 -30z"/>
<path d="M6790 5356 c7 -7 14 -6 21 1 9 9 7 12 -9 10 -14 -1 -18 -5 -12 -11z"/>
<path d="M6870 5352 c13 -26 32 -25 36 1 1 9 -2 15 -7 11 -5 -3 -7 -10 -4 -15
11 -16 -7 -10 -22 9 -13 15 -13 15 -3 -6z"/>
<path d="M6920 5360 c0 -5 5 -10 11 -10 5 0 7 -5 3 -12 -4 -7 -3 -8 5 -4 9 6
9 11 0 22 -14 17 -19 18 -19 4z"/>
<path d="M7017 5364 c-3 -4 0 -18 8 -33 8 -17 10 -32 5 -42 -7 -11 -5 -16 6
-16 8 0 13 6 10 13 -3 8 0 16 5 20 6 4 2 14 -11 26 -18 16 -19 22 -8 29 7 5 8
9 2 9 -6 0 -13 -3 -17 -6z"/>
<path d="M6840 5349 c0 -5 -4 -8 -9 -4 -6 3 -15 -5 -21 -17 -10 -21 -10 -22 4
-5 8 10 18 18 22 17 5 -1 10 3 12 9 2 6 1 11 -2 11 -3 0 -6 -5 -6 -11z"/>
<path d="M6760 5335 c-10 -12 -11 -18 -1 -28 10 -9 11 -8 5 8 -7 17 -6 18 8 7
14 -11 16 -11 14 2 -3 24 -12 28 -26 11z"/>
<path d="M6975 5319 c1 -10 5 -22 10 -26 4 -5 5 -3 1 4 -3 6 1 16 10 21 15 8
14 10 -3 14 -14 4 -19 0 -18 -13z"/>
<path d="M6320 5320 c8 -5 20 -10 25 -10 6 0 3 5 -5 10 -8 5 -19 10 -25 10 -5
0 -3 -5 5 -10z"/>
<path d="M6873 5311 c24 -16 26 -19 12 -31 -8 -7 -15 -17 -15 -22 0 -6 9 0 19
13 20 24 20 24 -2 41 -12 10 -26 18 -32 18 -5 0 3 -8 18 -19z"/>
<path d="M6910 5320 c0 -6 7 -10 15 -10 8 0 15 2 15 4 0 2 -7 6 -15 10 -8 3
-15 1 -15 -4z"/>
<path d="M6710 5309 c0 -5 5 -7 10 -4 6 3 10 1 10 -4 0 -6 5 -11 11 -11 8 0 8
5 -1 15 -14 17 -30 20 -30 4z"/>
<path d="M6344 5289 c-19 -22 -19 -22 4 -8 12 8 22 17 22 21 0 12 -6 9 -26
-13z"/>
<path d="M6840 5306 c0 -2 7 -7 16 -10 8 -3 12 -2 9 4 -6 10 -25 14 -25 6z"/>
<path d="M6950 5304 c0 -13 18 -39 24 -34 2 3 -2 14 -10 24 -8 11 -14 16 -14
10z"/>
<path d="M7005 5299 c-4 -6 -5 -12 -2 -15 2 -3 7 2 10 11 7 17 1 20 -8 4z"/>
<path d="M6116 5278 c3 -5 10 -6 15 -3 13 9 11 12 -6 12 -8 0 -12 -4 -9 -9z"/>
<path d="M6420 5280 c0 -5 5 -10 10 -10 6 0 10 5 10 10 0 6 -4 10 -10 10 -5 0
-10 -4 -10 -10z"/>
<path d="M6837 5276 c-4 -10 -1 -13 8 -9 8 3 12 9 9 14 -7 12 -11 11 -17 -5z"/>
<path d="M6295 5260 c3 -5 8 -10 11 -10 2 0 4 5 4 10 0 6 -5 10 -11 10 -5 0
-7 -4 -4 -10z"/>
<path d="M6476 5253 c-6 -14 -5 -15 5 -6 7 7 10 15 7 18 -3 3 -9 -2 -12 -12z"/>
<path d="M6711 5251 c-9 -16 -8 -18 9 -14 11 3 23 9 26 14 3 5 -3 6 -12 2 -12
-4 -15 -3 -10 5 4 7 5 12 2 12 -3 0 -10 -9 -15 -19z"/>
<path d="M6990 5262 c0 -5 7 -9 15 -9 8 0 12 4 9 9 -3 4 -9 8 -15 8 -5 0 -9
-4 -9 -8z"/>
<path d="M6372 5236 c7 -8 15 -12 17 -11 5 6 -10 25 -20 25 -5 0 -4 -6 3 -14z"/>
<path d="M6661 5234 c0 -11 3 -14 6 -6 3 7 2 16 -1 19 -3 4 -6 -2 -5 -13z"/>
<path d="M6550 5231 c0 -6 5 -13 12 -17 6 -4 8 -3 4 4 -3 5 0 13 6 15 8 3 6 6
-4 6 -10 1 -18 -3 -18 -8z"/>
<path d="M6475 5221 c-3 -5 -2 -12 3 -15 5 -3 9 1 9 9 0 17 -3 19 -12 6z"/>
<path d="M6676 5215 c-9 -26 -7 -32 5 -12 6 10 9 21 6 23 -2 3 -7 -2 -11 -11z"/>
<path d="M6580 5211 c0 -6 4 -13 10 -16 6 -3 7 1 4 9 -7 18 -14 21 -14 7z"/>
<path d="M6640 5199 c0 -5 5 -7 10 -4 6 3 10 8 10 11 0 2 -4 4 -10 4 -5 0 -10
-5 -10 -11z"/>
</g>
</svg>
